<svg width="60" height="60" viewBox="0 0 60 60" fill="none" xmlns="http://www.w3.org/2000/svg">
<g filter="url(#filter0_i_3554_66378)">
<rect width="60" height="60" rx="12.56" fill="url(#paint0_linear_3554_66378)"/>
</g>
<path d="M29.4364 32.845L15.2792 41.0395L13.1992 38.9595L25.6099 30.6202L29.4364 32.845Z" fill="url(#paint1_linear_3554_66378)"/>
<path d="M29.7564 33.3993L15.5812 41.5625L16.3425 44.4038L29.7699 37.8255L29.7564 33.3993Z" fill="url(#paint2_linear_3554_66378)"/>
<path d="M30.3192 33.3992L44.4944 41.5625L43.7331 44.4038L30.3057 37.8255L30.3192 33.3992Z" fill="url(#paint3_linear_3554_66378)"/>
<path d="M30.6392 32.845L44.7964 41.0394L46.8764 38.9595L34.4657 30.6202L30.6392 32.845Z" fill="url(#paint4_linear_3554_66378)"/>
<path d="M30.3192 32.2394L30.3012 15.8817L33.1425 15.1204L34.1592 30.038L30.3192 32.2394Z" fill="url(#paint5_linear_3554_66378)"/>
<path d="M29.6792 32.2394L29.6972 15.8817L26.8559 15.1204L25.8392 30.038L29.6792 32.2394Z" fill="url(#paint6_linear_3554_66378)"/>
<defs>
<filter id="filter0_i_3554_66378" x="0" y="0" width="60" height="60.785" filterUnits="userSpaceOnUse" color-interpolation-filters="sRGB">
<feFlood flood-opacity="0" result="BackgroundImageFix"/>
<feBlend mode="normal" in="SourceGraphic" in2="BackgroundImageFix" result="shape"/>
<feColorMatrix in="SourceAlpha" type="matrix" values="0 0 0 0 0 0 0 0 0 0 0 0 0 0 0 0 0 0 127 0" result="hardAlpha"/>
<feOffset dy="0.785"/>
<feGaussianBlur stdDeviation="0.3925"/>
<feComposite in2="hardAlpha" operator="arithmetic" k2="-1" k3="1"/>
<feColorMatrix type="matrix" values="0 0 0 0 1 0 0 0 0 1 0 0 0 0 1 0 0 0 0.35 0"/>
<feBlend mode="normal" in2="shape" result="effect1_innerShadow_3554_66378"/>
</filter>
<linearGradient id="paint0_linear_3554_66378" x1="30" y1="0" x2="30" y2="60" gradientUnits="userSpaceOnUse">
<stop stop-color="#4879FD"/>
<stop offset="1" stop-color="#0D39B1"/>
</linearGradient>
<linearGradient id="paint1_linear_3554_66378" x1="64.54" y1="15.1204" x2="72.2658" y2="74.6058" gradientUnits="userSpaceOnUse">
<stop stop-color="white"/>
<stop offset="1" stop-color="white" stop-opacity="0"/>
</linearGradient>
<linearGradient id="paint2_linear_3554_66378" x1="64.54" y1="15.1204" x2="72.2658" y2="74.6058" gradientUnits="userSpaceOnUse">
<stop stop-color="white"/>
<stop offset="1" stop-color="white" stop-opacity="0"/>
</linearGradient>
<linearGradient id="paint3_linear_3554_66378" x1="64.54" y1="15.1204" x2="72.2658" y2="74.6058" gradientUnits="userSpaceOnUse">
<stop stop-color="white"/>
<stop offset="1" stop-color="white" stop-opacity="0"/>
</linearGradient>
<linearGradient id="paint4_linear_3554_66378" x1="64.54" y1="15.1204" x2="72.2658" y2="74.6058" gradientUnits="userSpaceOnUse">
<stop stop-color="white"/>
<stop offset="1" stop-color="white" stop-opacity="0"/>
</linearGradient>
<linearGradient id="paint5_linear_3554_66378" x1="64.54" y1="15.1204" x2="72.2658" y2="74.6058" gradientUnits="userSpaceOnUse">
<stop stop-color="white"/>
<stop offset="1" stop-color="white" stop-opacity="0"/>
</linearGradient>
<linearGradient id="paint6_linear_3554_66378" x1="64.54" y1="15.1204" x2="72.2658" y2="74.6058" gradientUnits="userSpaceOnUse">
<stop stop-color="white"/>
<stop offset="1" stop-color="white" stop-opacity="0"/>
</linearGradient>
</defs>
</svg>
